<?xml version="1.0" encoding="UTF-8" standalone="no"?>
<svg width="300px" height="300px" viewBox="0 0 300 300" version="1.1" xmlns="http://www.w3.org/2000/svg" xmlns:xlink="http://www.w3.org/1999/xlink" xmlns:sketch="http://www.bohemiancoding.com/sketch/ns">
    <!-- Generator: Sketch Beta 3.3 (11920) - http://www.bohemiancoding.com/sketch -->
    <title>twitter</title>
    <desc>Created with Sketch Beta.</desc>
    <defs></defs>
    <g id="icons" stroke="none" stroke-width="1" fill="none" fill-rule="evenodd" sketch:type="MSPage">
        <g id="twitter" sketch:type="MSArtboardGroup" fill="#000000">
            <path d="M296.7527,60.128897 C286.009992,64.8943402 274.462837,68.1136452 262.346274,69.5619707 C274.713966,62.1480602 284.214189,50.408191 288.686177,36.4184603 C277.109823,43.2848412 264.289537,48.269286 250.642908,50.9557036 C239.716237,39.3121829 224.146777,32.038445 206.915829,32.038445 C173.832181,32.038445 147.007556,58.8601416 147.007556,91.9438066 C147.007556,96.639172 147.537532,101.211901 148.559534,105.596292 C98.7705217,103.09823 54.6288159,79.2476207 25.0812872,43.0030658 C19.9245593,51.8506767 16.9695102,62.1407732 16.9695102,73.1200021 C16.9695102,93.9045887 27.5457747,112.24076 43.6203879,122.983451 C33.8004221,122.672476 24.5629908,119.977308 16.4862526,115.490728 C16.4794424,115.740376 16.4794424,115.991488 16.4794424,116.244082 C16.4794424,145.268938 37.1297302,169.480152 64.5354254,174.987286 C59.5086377,176.356765 54.2161298,177.088223 48.7527861,177.088223 C44.8925484,177.088223 41.1403559,176.711547 37.4815834,176.013663 C45.1057102,199.813161 67.22913,217.133171 93.4449329,217.614964 C72.9421217,233.683754 47.1117637,243.261376 19.0432068,243.261376 C14.2076688,243.261376 9.43931418,242.976672 4.7527,242.42332 C31.2648863,259.42214 62.7542134,269.339935 96.5853919,269.339935 C206.77615,269.339935 267.034829,178.05622 267.034829,98.8890335 C267.034829,96.2916944 266.976431,93.7089463 266.861099,91.1378949 C278.564465,82.6932314 288.720246,72.1432375 296.75173,60.128897 L296.7527,60.128897 Z" id="path5" sketch:type="MSShapeGroup" fill="#fff"></path>
        </g>
    </g>
</svg>
