<?xml version="1.0" encoding="UTF-8" standalone="no"?>
<svg width="300px" height="300px" viewBox="0 0 300 300" version="1.1" xmlns="http://www.w3.org/2000/svg" xmlns:xlink="http://www.w3.org/1999/xlink" xmlns:sketch="http://www.bohemiancoding.com/sketch/ns">
    <!-- Generator: Sketch Beta 3.3 (11920) - http://www.bohemiancoding.com/sketch -->
    <title>facebook</title>
    <desc>Created with Sketch Beta.</desc>
    <defs></defs>
    <g id="icons" stroke="none" stroke-width="1" fill="none" fill-rule="evenodd" sketch:type="MSPage">
        <g id="facebook" sketch:type="MSArtboardGroup" fill="#000000">
            <path d="M255.610677,268.714875 C262.846361,268.714875 268.713954,262.847282 268.713954,255.609756 L268.713954,44.3893228 C268.713954,37.150875 262.847282,31.285125 255.610677,31.285125 L44.3902441,31.285125 C37.1517963,31.285125 31.2860463,37.150875 31.2860463,44.3893228 L31.2860463,255.609756 C31.2860463,262.846361 37.150875,268.714875 44.3902441,268.714875 L255.610677,268.714875 Z M195.107866,268.714875 L195.107866,176.768991 L225.969615,176.768991 L230.590725,140.936048 L195.107866,140.936048 L195.107866,118.058978 C195.107866,107.684515 197.988689,100.61466 212.865418,100.61466 L231.839972,100.606368 L231.839972,68.5570972 C228.558395,68.1204134 217.294902,67.1447845 204.190704,67.1447845 C176.83348,67.1447845 158.103985,83.8437925 158.103985,114.510232 L158.103985,140.936048 L127.163006,140.936048 L127.163006,176.768991 L158.103985,176.768991 L158.103985,268.714875 L195.107866,268.714875 Z" id="Blue_1_" sketch:type="MSShapeGroup" fill="#fff"></path>
        </g>
    </g>
</svg>
