<?xml version="1.0" encoding="UTF-8" standalone="no"?>
<svg width="300px" height="300px" viewBox="0 0 300 300" version="1.1" xmlns="http://www.w3.org/2000/svg" xmlns:xlink="http://www.w3.org/1999/xlink" xmlns:sketch="http://www.bohemiancoding.com/sketch/ns">
    <!-- Generator: Sketch Beta 3.3 (11920) - http://www.bohemiancoding.com/sketch -->
    <title>instagram</title>
    <desc>Created with Sketch Beta.</desc>
    <defs></defs>
    <g id="icons" stroke="none" stroke-width="1" fill="none" fill-rule="evenodd" sketch:type="MSPage">
        <g id="instagram" sketch:type="MSArtboardGroup" fill="#000000">
            <path d="M214.670038,134 L231,134 L231,74.9952345 C231,68.9222641 226.079234,64 220.009162,64 L72.9908378,64 C66.9208572,64 62,68.9227342 62,74.9952345 L62,134 L80.329962,134 C79.457601,138.364561 79,142.878841 79,147.5 C79,185.331505 109.668495,216 147.5,216 C185.331505,216 216,185.331505 216,147.5 C216,142.878841 215.542399,138.364561 214.670038,134 Z M36,58.00905 C36,46.9583568 44.9482547,38 56.00905,38 L235.99095,38 C247.041643,38 256,46.9482547 256,58.00905 L256,237.99095 C256,249.041643 247.051745,258 235.99095,258 L56.00905,258 C44.9583568,258 36,249.051745 36,237.99095 L36,58.00905 Z M62,74.9908378 C62,68.9207657 66.9208572,64 72.9908378,64 L220.009162,64 C226.079234,64 231,68.9208572 231,74.9908378 L231,222.009162 C231,228.079234 226.079143,233 220.009162,233 L72.9908378,233 C66.9207657,233 62,228.079143 62,222.009162 L62,74.9908378 Z M147,192 C171.852814,192 192,171.852814 192,147 C192,122.147186 171.852814,102 147,102 C122.147186,102 102,122.147186 102,147 C102,171.852814 122.147186,192 147,192 Z M190,75.0007241 C190,68.9251919 194.925179,64 201.000724,64 L219.999276,64 C226.074808,64 231,68.9251792 231,75.0007241 L231,93.9992759 C231,100.074808 226.074821,105 219.999276,105 L201.000724,105 C194.925192,105 190,100.074821 190,93.9992759 L190,75.0007241 Z" id="Rectangle-47" sketch:type="MSShapeGroup" fill="#fff"></path>
        </g>
    </g>
</svg>
