<?xml version="1.0"?>
<svg width="300" height="300" xmlns="http://www.w3.org/2000/svg">
 <!-- Created with Method Draw - http://github.com/duopixel/Method-Draw/ -->

 <g>
  <title>background</title>
  <rect fill-opacity="0" id="canvas_background" height="302" width="302" y="-1" x="-1"/>
  <g display="none" overflow="visible" y="0" x="0" height="100%" width="100%" id="canvasGrid">
   <rect fill="url(#gridpattern)" stroke-width="0" y="0" x="0" height="100%" width="100%"/>
  </g>
 </g>
 <g>
  <title>Layer 1</title>
  <g stroke="null" id="svg_12">
   <path stroke="null" id="svg_5" d="m151.887207,213.105988c-38.344452,0 -76.688904,0 -114.976254,0c-2.606094,0 -4.286179,-1.716995 -5.386963,-4.005676c-0.984528,-2.034943 -1.042297,-4.323608 0.058487,-6.358566c2.953522,-5.340881 5.965561,-10.554535 8.919769,-15.895813c2.896469,-5.150208 5.67662,-10.363846 8.572372,-15.514053c2.200882,-3.941849 4.460236,-7.757217 6.661133,-11.699081c1.854126,-3.242905 3.591309,-6.548859 5.386963,-9.791763c2.490509,-4.450882 5.039555,-8.901367 7.587826,-13.41568c2.259392,-4.069504 4.460274,-8.13858 6.718918,-12.144653c1.795654,-3.242523 3.649834,-6.358154 5.503235,-9.601059c1.216385,-2.161446 2.432747,-4.45089 3.648407,-6.612709c1.506035,-2.670059 3.012032,-5.340881 4.518738,-8.074768c1.795685,-3.242912 3.532852,-6.485435 5.328476,-9.66452c1.853455,-3.306343 3.764709,-6.549248 5.618835,-9.791779c2.085297,-3.751541 4.112122,-7.629959 6.197418,-11.381508c1.274139,-2.352119 2.663879,-4.641571 3.996552,-6.993675c1.911896,-3.370178 3.764648,-6.739944 5.676605,-10.04631c0.868927,-1.589729 1.795654,-3.11525 2.664581,-4.70499c2.258636,-4.132927 4.518036,-8.265858 6.776672,-12.398796c1.911957,-3.43359 3.880981,-6.86681 5.966263,-10.173153c0.926697,-1.398659 2.317184,-2.225243 3.996567,-2.289063c1.795624,-0.063435 3.649078,-0.126873 4.98175,1.398659c1.100067,1.271793 2.026794,2.798088 2.895737,4.323624c1.737839,2.988388 3.359451,6.040607 5.039536,9.092831c0.984497,1.780041 1.911224,3.560081 2.895721,5.340511c0.174088,0.25452 0.463715,0.699707 0.637741,0.635895c0.347488,-0.127258 0.752701,-0.381374 0.926773,-0.699333c1.911224,-3.433212 3.822449,-6.866814 5.733673,-10.300415c1.274872,-2.288681 2.490524,-4.705002 3.880981,-6.930244c1.042297,-1.716991 2.549026,-2.670448 4.518036,-2.861526c3.533508,-0.381386 5.676605,1.589737 7.240417,4.832256c1.216339,2.479759 2.722351,4.832256 4.055023,7.312016c2.663864,4.768829 5.328491,9.537651 7.993042,14.369911c2.664581,4.705006 5.270721,9.410393 7.935272,14.115009c2.606781,4.578136 5.155121,9.155888 7.704117,13.797832c2.548355,4.51432 5.096634,9.028633 7.587143,13.606377c2.664612,4.768822 5.271393,9.537651 7.936005,14.242653c1.795654,3.242508 3.649078,6.485443 5.502548,9.728355c2.085281,3.751144 4.169876,7.566132 6.255905,11.317673c1.853424,3.305939 3.764648,6.612274 5.618134,9.918625c1.795624,3.179077 3.475708,6.358551 5.271393,9.537643c1.44751,2.543182 2.895721,5.022949 4.343918,7.566528c1.215683,2.22525 2.432785,4.387039 3.706924,6.612289c1.853424,3.370178 3.764633,6.739563 5.618835,10.109741c1.795624,3.242508 3.591278,6.548843 5.38623,9.791748c1.390442,2.479782 2.838684,4.959534 4.228363,7.502716c2.143829,3.878433 4.286224,7.693787 6.372223,11.571823c0.984497,1.844254 2.143097,3.62468 2.895752,5.595413c1.042969,2.797699 -0.347473,6.35817 -2.606812,8.075165c-1.042297,0.763153 -2.084625,1.144531 -3.359436,1.144531c-38.228897,-0.190689 -76.399979,-0.190689 -114.629547,-0.190689zm-0.114914,-25.942108l0,-0.063431c-4.40239,0 -8.862656,0 -13.26442,0c-9.673828,0 -19.404083,0.063431 -29.077209,0.063431c-8.341217,0 -16.681702,0.063812 -24.965134,-0.063431c-1.274139,0 -2.664581,-0.381393 -3.764664,-0.953842c-3.475754,-1.843491 -3.823181,-5.912979 -2.780182,-9.092056c0.579315,-1.716614 1.679398,-3.179489 2.548332,-4.768845c2.259361,-4.005661 4.460228,-8.011337 6.718903,-11.953568c1.737877,-3.051849 3.359436,-6.16748 5.097328,-9.219711c1.448212,-2.606613 2.954224,-5.086365 4.402435,-7.693008c2.143097,-3.878799 4.285492,-7.821045 6.429291,-11.699448c1.853424,-3.306335 3.706879,-6.612671 5.560303,-9.982452c1.332672,-2.416306 2.722412,-4.896072 4.055023,-7.312012c1.795654,-3.179085 3.590637,-6.294746 5.386292,-9.473824c1.390411,-2.543198 2.780151,-5.150208 4.170593,-7.629967c2.490509,-4.450874 5.038818,-8.837936 7.47226,-13.288811c2.72168,-4.83226 5.387009,-9.727959 8.050858,-14.624031c1.969711,-3.497047 3.938766,-6.99408 5.850693,-10.554932c0.28894,-0.508247 0.34671,-1.462097 0.11557,-1.907295c-2.201569,-4.196373 -4.518036,-8.265869 -6.776703,-12.398785c-0.579987,-1.080715 -1.158569,-1.080715 -1.737869,0c-0.926712,1.653164 -1.79567,3.306725 -2.722412,4.959507c-1.795609,3.242905 -3.533463,6.485817 -5.329147,9.664906c-3.359436,5.976398 -6.718903,11.953213 -10.078339,17.929989c-3.649139,6.485825 -7.298218,12.970871 -11.005127,19.456688c-2.317139,4.132919 -4.575806,8.202026 -6.892975,12.334961c-1.853424,3.306351 -3.707581,6.67614 -5.560333,10.045921c-1.795639,3.179077 -3.592003,6.358154 -5.386963,9.537613c-1.737846,3.179077 -3.417221,6.35817 -5.155121,9.473434c-2.259354,4.069489 -4.576515,8.138992 -6.892975,12.208084c-1.389725,2.479782 -2.722351,4.959534 -4.112091,7.438904c-2.143799,3.815353 -4.402466,7.503082 -6.487762,11.318069c-2.200878,3.878418 -4.286175,7.820663 -6.429287,11.699066c-1.796341,3.179092 -3.649078,6.294739 -5.444717,9.473831c-1.390442,2.415939 -2.780197,4.896088 -4.112823,7.375458c-0.231857,0.38176 -0.347443,0.826569 -0.520813,1.27179c0.405228,0.127258 0.810455,0.317932 1.216385,0.317932c14.248249,0 28.497944,0 42.746883,0c51.145905,0 102.348862,0 153.495499,0c2.258652,0 4.51799,0.063446 6.718918,0.063446c0.926697,0 1.216339,-0.381378 0.752655,-1.271408c-0.289673,-0.572067 -0.69487,-1.080704 -0.984528,-1.653168c-2.143799,-3.878418 -4.286896,-7.820648 -6.487045,-11.699463c-2.549026,-4.577728 -5.213608,-9.092056 -7.761948,-13.60675c-2.085297,-3.623901 -4.054291,-7.312012 -6.081818,-10.999359c-3.533508,-6.358566 -7.124847,-12.716736 -10.658386,-19.074921c-3.243164,-5.786087 -6.42926,-11.508728 -9.672424,-17.294449c-1.969696,-3.497406 -3.880951,-6.930618 -5.850662,-10.42765c-3.069839,-5.46817 -6.139618,-11.000137 -9.151627,-16.531342c-1.911285,-3.433601 -3.706909,-6.867203 -5.618134,-10.236984c-1.448944,-2.543571 -3.012054,-5.08638 -4.402466,-7.629967c-2.143097,-3.81498 -4.170624,-7.693779 -6.31369,-11.508759c-1.79567,-3.242531 -3.706879,-6.48505 -5.502548,-9.727959c-2.491226,-4.450493 -4.923264,-8.901756 -7.413773,-13.352249c-0.348145,-0.572472 -0.753357,-0.699333 -1.1008,-0.063446c-0.405212,0.699341 -0.752655,1.398674 -1.158569,2.161438c-1.853455,3.306343 -3.532837,6.739952 -5.56105,9.982468c-0.86821,1.33522 -0.579269,2.162201 0.058502,3.242912c1.157883,1.907684 2.200882,3.878807 3.301651,5.786087c1.621613,2.988419 3.243896,5.976807 4.923279,8.901382c1.853424,3.369774 3.764664,6.739944 5.618805,10.109718c1.389725,2.54319 2.780182,5.150208 4.228424,7.693398c1.737152,3.115654 3.591263,6.231316 5.328461,9.346962c1.390442,2.47937 2.722382,5.08638 4.112778,7.566147c1.7379,3.052216 3.475082,6.104042 5.212936,9.155891c1.795624,3.242889 3.533478,6.485794 5.270691,9.728317c1.911911,3.433578 3.823151,6.739929 5.73439,10.173126c2.143768,3.814987 4.228363,7.629974 6.313705,11.508774c1.737854,3.115265 3.532806,6.230927 5.271378,9.410019c2.779465,5.022934 5.618088,9.982452 8.340515,15.068832c0.868912,1.589737 1.795654,3.306732 2.200836,5.023331c0.927414,3.815002 -2.432693,8.393112 -6.602615,8.393112c-22.705719,-0.191055 -45.295898,-0.127625 -67.885422,-0.127625zm0.057816,-57.541885l0,0c-10.426483,0 -20.85228,0 -31.220306,0.063034c-0.579285,0 -1.448914,0.509033 -1.737854,1.017654c-1.911224,3.24292 -3.706879,6.612686 -5.560364,9.982468c-1.390411,2.543182 -2.722351,5.086777 -4.112762,7.566147c-2.491241,4.387451 -4.98175,8.77449 -7.472321,13.161926c-1.911194,3.369781 -3.822418,6.739578 -5.734375,10.173172c-0.17337,0.317551 -0.289642,0.890015 -0.231873,1.207962c0.058502,0.191071 0.637787,0.317947 0.927429,0.381378c3.069824,0 6.139618,0 9.209442,0c15.40683,0 30.872192,0 46.280441,0c3.417221,0 6.834457,0 10.252426,0c9.383514,0 18.824799,0 28.207611,0c5.503204,0 11.005783,0 16.508301,0.063812c0.753357,0 0.811844,-0.38176 0.694855,-1.017273c-0.057785,-0.318329 -0.289627,-0.63588 -0.462982,-0.953842c-1.389725,-2.479752 -2.837952,-4.959503 -4.228409,-7.502701c-1.622299,-2.861145 -3.243851,-5.72229 -4.865433,-8.583801c-2.027573,-3.560486 -3.997269,-7.184753 -5.966293,-10.745239c-2.490494,-4.514694 -4.923233,-9.028992 -7.413742,-13.479874c-0.347427,-0.635895 -1.274902,-1.207947 -1.911224,-1.207947c-10.426514,-0.190689 -20.795227,-0.126877 -31.162567,-0.126877zm-0.057816,-13.289185l0,0c7.644943,0 15.291306,0 22.936935,-0.063431c0.579285,0 1.158569,-0.190689 1.680084,-0.317963c-0.231857,-0.572449 -0.463715,-1.080704 -0.753372,-1.653152c-0.05777,-0.126884 -0.116272,-0.254524 -0.174057,-0.381401c-1.79567,-3.242905 -3.532806,-6.54924 -5.328491,-9.791779c-2.085266,-3.751541 -4.228363,-7.439262 -6.31369,-11.190819c-1.853424,-3.305954 -3.591278,-6.612297 -5.386963,-9.91864c-1.911224,-3.497032 -3.880219,-6.994072 -5.849976,-10.427666c-0.173325,-0.31794 -0.579285,-0.635513 -0.926727,-0.699326c-0.17337,-0.06382 -0.463013,0.444817 -0.637054,0.763145c-1.390442,2.479378 -2.722382,4.959511 -4.112793,7.438889c-1.737885,3.179466 -3.532837,6.421997 -5.270691,9.601082c-1.911224,3.370163 -3.823196,6.803375 -5.734406,10.173538c-0.984528,1.716614 -1.853455,3.496658 -2.837967,5.213257c-1.853439,3.242905 -3.706894,6.421997 -5.56105,9.664925c-0.694855,1.27179 -0.520813,1.58934 0.811157,1.58934c7.877487,0 15.696472,0 23.459061,0z"/>
   <path stroke="null" id="svg_6" d="m211.200241,260.029907c0,4.260193 0,8.456543 0,12.71637c0,2.161774 -0.81044,3.433594 -2.721695,4.196716c-1.21637,0.508636 -3.069809,-0.190674 -4.054977,-1.589722c-0.231186,-0.317932 -0.405258,-0.69931 -0.405258,-1.081085c-0.347412,-3.051849 -0.579285,-6.103668 -1.042267,-9.155914c-0.81189,-5.595001 -4.228424,-10.999725 -9.557587,-12.780151c-1.621582,-0.572083 -1.795654,-0.381378 -1.795654,1.46286c0,6.4216 0,12.779785 0,19.201782c0,2.098389 -1.795654,4.132935 -3.706924,4.069519c-2.143051,-0.063812 -3.823135,-1.653198 -3.823135,-4.005676c-0.057785,-6.294739 0,-12.589874 0,-18.948059c0,-2.22525 0,-4.387054 0,-6.612305c0,-2.480133 1.506027,-4.133301 3.707581,-4.196381c4.806992,-0.127228 9.267212,1.144165 13.321533,4.00531c0.579285,0.44519 1.1008,1.017273 1.680084,1.462494c0.231873,0.190674 0.579315,0.381744 0.694855,0.317932c0.231873,-0.190704 0.348175,-0.508636 0.405945,-0.826599c0.0578,-0.44519 0,-0.953827 0,-1.462067c-0.116272,-1.653198 0.810455,-2.607025 2.02681,-3.24292c1.158585,-0.635895 3.128326,-0.25415 3.997238,0.572449c1.042297,0.953461 1.331223,2.097992 1.331223,3.49704c-0.114838,4.069122 -0.05777,8.20166 -0.05777,12.398407l0,0z"/>
   <path stroke="null" id="svg_7" d="m123.968567,260.093353c0,-4.323639 0,-8.647247 0,-12.970886c0,-2.098358 1.217072,-3.814972 3.069794,-3.814972c3.997253,-0.063446 7.993805,-0.254517 11.932526,0.317963c5.212891,0.763123 9.209442,4.005646 10.947296,9.601074c0.868927,2.734253 0.753372,5.72229 -0.347412,8.647247c-1.27417,3.433594 -3.475052,5.72226 -6.313705,7.438873c-1.853439,1.081085 -3.880264,1.653168 -6.023361,1.653168c-1.564484,0 -3.128265,0.063812 -4.692123,-0.063416c-1.216339,-0.063446 -1.621536,0.381775 -1.505966,1.653168c0.23114,1.907654 -0.521515,3.115662 -1.969025,4.069122c-1.911957,1.208313 -5.213593,-0.317596 -5.155121,-3.369781c0.115601,-4.387085 0.057098,-8.774139 0.057098,-13.16156l0,0zm7.124817,-3.24292l0,0c0,1.526306 -0.05777,3.115662 0,4.641968c0,0.381378 0.405945,1.144135 0.637085,1.144135c2.896439,0 5.850677,0.572449 8.57309,-1.080719c1.852722,-1.144531 3.069794,-3.94223 2.490509,-5.722656c-0.694885,-2.03418 -3.649139,-4.323242 -5.734406,-4.387054c-1.621582,-0.063446 -3.301697,0 -4.923279,-0.063446c-0.811142,0 -1.100769,0.317963 -1.042999,1.144531c0.0578,1.462097 0,2.861145 0,4.323242z"/>
   <path stroke="null" id="svg_8" d="m79.889725,272.364868c0,2.098358 -1.56382,4.069092 -3.243889,4.514313c-1.389732,0.317963 -3.300957,-0.953461 -4.054306,-2.47937c-0.985214,-1.97113 -1.563835,-4.196747 -3.359459,-5.531982c-1.216385,-0.953827 -2.374947,-1.9711 -4.054352,-2.097961c-1.274837,-0.063812 -2.43272,-0.508636 -3.765347,-0.191101c-2.954254,0.635925 -5.038849,2.352509 -6.487061,5.277466c-0.869659,1.780457 -1.796387,3.560852 -3.592026,4.577728c-1.389725,0.826996 -2.606094,0.254547 -3.648376,-0.635498c-1.1586,-0.953827 -1.680084,-2.289063 -1.216385,-3.878784c0.405197,-1.398682 0.92601,-2.797302 1.563812,-4.069122c1.505997,-3.051819 3.069809,-6.040192 4.633591,-9.028595c1.85347,-3.497467 3.707596,-6.930664 5.56105,-10.427704c0.520782,-0.953827 0.984482,-1.907684 1.44751,-2.924957c0.694855,-1.589355 1.911942,-2.416321 3.417252,-2.479767c1.62228,-0.063416 2.665295,1.081116 3.41795,2.54361c1.969002,3.687714 3.938721,7.43927 5.849953,11.190399c1.39045,2.734314 2.780159,5.404724 4.170616,8.138641c1.042999,2.034546 2.026802,4.069092 3.012009,6.103638c0.231873,0.635925 0.289658,1.208374 0.347458,1.399048z"/>
   <path stroke="null" id="svg_9" d="m221.568939,271.72937c0.46373,-1.01767 1.157898,-2.798096 1.96904,-4.451263c0.926712,-1.907288 1.969711,-3.75116 2.954208,-5.595032c1.506012,-2.861115 2.954254,-5.72229 4.402466,-8.583801c1.33194,-2.479767 2.663879,-4.959137 3.938751,-7.502716c1.621582,-3.115265 4.865448,-3.306335 6.544861,-0.381378c1.042999,1.907684 2.085312,3.814606 3.069794,5.785706c3.070526,5.913361 6.25589,11.763306 9.210144,17.740082c0.868927,1.780029 1.969025,3.687714 0.752655,5.97641c-0.810425,1.525909 -2.026794,2.225616 -3.417282,2.161804c-1.448212,-0.063446 -2.664536,-0.890045 -3.359421,-2.415955c-0.5215,-1.208313 -1.100815,-2.416321 -1.7379,-3.624268c-1.216354,-2.225616 -3.127579,-3.306366 -5.386948,-4.005676c-1.737152,-0.572052 -3.417252,-0.381378 -5.039505,0.063446c-2.432053,0.69931 -4.11142,2.352509 -5.328506,4.768829c-0.868927,1.780396 -1.795624,3.623901 -3.475037,4.704987c-2.201569,1.462463 -5.329193,-0.763123 -5.097321,-4.641174z"/>
   <path stroke="null" id="svg_10" d="m97.498138,253.798981c0,1.780029 0.116302,3.560486 0,5.277069c-0.405212,4.577759 4.402435,10.046326 8.688629,9.4104c1.100098,-0.191071 2.258667,-0.063416 3.359467,0c3.012024,0.126892 4.575806,2.415955 3.938721,5.658875c-0.289642,1.335175 -1.968994,2.861145 -3.301636,2.861145c-3.185394,0.063812 -6.37149,0.254486 -9.383514,-1.017334c-1.737152,-0.763123 -3.475739,-1.780396 -4.981049,-3.051819c-4.634308,-4.006042 -6.25589,-9.537628 -6.25589,-15.832367c0,-3.115662 -0.057785,-6.16748 0,-9.283142c0,-1.652802 0.52079,-3.179077 1.795654,-4.132935c1.331947,-0.953461 2.780151,-0.953461 4.169891,-0.190308c1.390442,0.762756 1.911926,2.352509 1.969727,4.005676c0.058472,2.097992 0,4.196381 0,6.294739z"/>
   <path stroke="null" id="svg_11" d="m163.47229,258.440582c0,-3.370209 -0.058502,-6.73996 0.057755,-10.046326c0.058517,-1.207977 0.231888,-2.543182 0.811172,-3.49704c0.984528,-1.716583 2.780182,-2.098358 4.459564,-1.398651c1.390411,0.572083 2.375641,2.22525 2.375641,4.259796c-0.058502,8.265869 -0.116302,16.595184 -0.231842,24.860657c0,0.572449 -0.174118,1.144531 -0.347443,1.653168c-0.405945,1.46286 -1.853439,2.670807 -3.301666,2.798096c-1.332642,0.063416 -3.243896,-1.081146 -3.533539,-2.416321c-0.289642,-1.525909 -0.289642,-3.115692 -0.348145,-4.641602c0,-0.508636 0.116257,-1.017273 0.116257,-1.589325c-0.057755,-3.370178 -0.057755,-6.676514 -0.057755,-9.982452l0,0z"/>
  </g>
 </g>
</svg>
