<?xml version="1.0" encoding="utf-8"?>
<!-- Generator: Adobe Illustrator 18.0.0, SVG Export Plug-In . SVG Version: 6.00 Build 0)  -->
<!DOCTYPE svg PUBLIC "-//W3C//DTD SVG 1.1//EN" "http://www.w3.org/Graphics/SVG/1.1/DTD/svg11.dtd">
<svg version="1.1" id="Livello_1" xmlns="http://www.w3.org/2000/svg" xmlns:xlink="http://www.w3.org/1999/xlink" x="0px" y="0px"
	 viewBox="0 0 255.1 68" enable-background="new 0 0 255.1 68" xml:space="preserve">
<g>
	<defs>
		<rect id="SVGID_1_" y="0" width="255.1" height="68"/>
	</defs>
	<clipPath id="SVGID_2_">
		<use xlink:href="#SVGID_1_"  overflow="visible"/>
	</clipPath>
	<path clip-path="url(#SVGID_2_)" fill="#7B78B1" d="M81.4,32.1H67c-1.7,0-3.9,1.1-4.9,2.4L51.5,48c-1,1.3-2.7,1.3-3.8,0L37.2,34.5
		c-1-1.3-3.2-2.4-4.9-2.4H17.8c-0.3,0-0.6,0.1-0.9,0.2v13.8c0.3-0.1,0.6-0.2,0.9-0.2h14.5c1.7,0,3.9,1.1,4.9,2.4l9,11.5l1.5,1.9
		c1,1.3,2.7,1.3,3.8,0l1.5-1.9l9-11.5c1-1.3,3.2-2.4,4.9-2.4h14.5c0.3,0,0.6,0.1,0.9,0.2V32.3C82.1,32.2,81.8,32.1,81.4,32.1"/>
	<path clip-path="url(#SVGID_2_)" fill="#283583" d="M81.4,46H67c-1.7,0-3.9,1.1-4.9,2.4l-9,11.5l-1.5,1.9c-1,1.3-2.7,1.3-3.8,0
		l-1.5-1.9l-9-11.5C36.2,47,34,46,32.3,46H17.8c-0.3,0-0.6,0.1-0.9,0.2V32.3V9.2c0-0.5,0.4-0.9,0.9-0.9h14.5c1,0,2.5,0.8,3.1,1.6
		l10.7,14.4c0.9,1.2,2.2,1.9,3.5,1.9c1.4,0,2.7-0.7,3.5-1.9L63.8,9.9C64.4,9.1,66,8.3,67,8.3h14.5c0.5,0,0.9,0.4,0.9,0.9v23.1v13.8
		C82.1,46,81.8,46,81.4,46 M81.4,4H67c-2.4,0-5.2,1.4-6.6,3.3L49.7,21.8c0,0-0.1,0.1-0.1,0.1c0,0-0.1-0.1-0.1-0.1L38.9,7.3
		C37.5,5.5,34.6,4,32.3,4H17.8c-2.9,0-5.2,2.3-5.2,5.2V59c0,1.7,0.9,3.2,2.1,4.2c0.9,0.6,1.9,1,3,1h63.6c1.1,0,2.2-0.4,3-1
		c1.3-0.9,2.1-2.5,2.1-4.2V9.2C86.6,6.4,84.3,4,81.4,4"/>
	<path clip-path="url(#SVGID_2_)" fill="#283583" d="M96.9,22c-0.1,6,4.4,8.7,9.1,8.7c5.8,0,8.9-3.4,8.9-7.8c0-5.5-4.8-6.7-6.3-7.1
		c-5.4-1.6-6.4-1.8-6.4-3.7c0-2.1,1.7-2.8,3.2-2.8c2.2,0,4.1,0.8,4.2,3.7h4.5c0-5.6-4.1-7.9-8.5-7.9c-3.9,0-8,2.4-8,7.4
		c0,4.6,3.2,6,6.4,6.9c3.1,1,6.3,1.4,6.3,4c0,2.5-2.5,3-4.2,3c-2.5,0-4.7-1.3-4.7-4.5H96.9z"/>
</g>
<path fill="#283583" d="M121.6,5.7h-4.2v4h4.2V5.7z M117.3,30.1h4.2V12.4h-4.2V30.1z"/>
<rect x="125" y="5.7" fill="#283583" width="4.2" height="24.4"/>
<polygon fill="#283583" points="146.4,12.4 142.2,12.4 138.9,24.5 138.9,24.5 135.6,12.4 131.1,12.4 136.4,30.1 141.2,30.1 "/>
<g>
	<defs>
		<rect id="SVGID_3_" y="0" width="255.1" height="68"/>
	</defs>
	<clipPath id="SVGID_4_">
		<use xlink:href="#SVGID_3_"  overflow="visible"/>
	</clipPath>
	<path clip-path="url(#SVGID_4_)" fill="#283583" d="M152.2,17.8c0.1-1.9,1.2-2.7,2.8-2.7c1.5,0,2.8,0.3,2.8,2.4c0,2-2.4,1.9-5,2.3
		c-2.6,0.4-5.3,1.4-5.3,5.4c0,3.6,2.3,5.3,5.3,5.3c1.9,0,3.9-0.6,5.2-2.2c0,0.6,0.2,1.2,0.3,1.7h4.3c-0.4-0.7-0.5-2.3-0.5-3.9V17
		c0-4.2-3.7-5-6.8-5c-3.5,0-7,1.4-7.3,5.9H152.2z M157.8,23.2c0,1.1-0.1,4.1-3.4,4.1c-1.4,0-2.6-0.4-2.6-2.3c0-1.8,1.2-2.3,2.5-2.6
		c1.3-0.3,2.8-0.3,3.5-1V23.2z"/>
	<path clip-path="url(#SVGID_4_)" fill="#283583" d="M165.3,30.1h4.2v-9.3c0-3.6,1-5.1,3.3-5.1c2,0,2.7,1.4,2.7,4.3v10h4.2V19.2
		c0-4.4-1.1-7.3-5.6-7.3c-1.8,0-3.6,1-4.7,2.9h-0.1v-2.5h-4V30.1z"/>
	<path clip-path="url(#SVGID_4_)" fill="#283583" d="M186.8,21.3c0-2.8,0.9-5.7,3.7-5.7c2.9,0,3.8,2.8,3.8,5.7
		c0,2.8-0.9,5.6-3.8,5.6C187.6,26.9,186.8,24.1,186.8,21.3 M182.5,21.3c0,5.6,3.1,9.3,8,9.3c4.9,0,8-3.7,8-9.3c0-5.6-3.1-9.3-8-9.3
		C185.7,11.9,182.5,15.6,182.5,21.3"/>
</g>
<polygon fill="#283583" points="96.9,62.2 101.3,62.2 101.3,45 101.4,45 106.6,62.2 110.2,62.2 115.4,44.9 115.5,44.9 115.5,62.2 
	119.9,62.2 119.9,37.8 113.3,37.8 108.6,54.6 108.5,54.6 103.5,37.8 96.9,37.8 "/>
<g>
	<defs>
		<rect id="SVGID_5_" y="0" width="255.1" height="68"/>
	</defs>
	<clipPath id="SVGID_6_">
		<use xlink:href="#SVGID_5_"  overflow="visible"/>
	</clipPath>
	<path clip-path="url(#SVGID_6_)" fill="#283583" d="M127.3,53.4c0-2.8,0.9-5.7,3.7-5.7c2.9,0,3.8,2.8,3.8,5.7
		c0,2.8-0.9,5.6-3.8,5.6C128.2,59,127.3,56.2,127.3,53.4 M123.1,53.4c0,5.6,3.1,9.3,8,9.3c4.9,0,8-3.7,8-9.3c0-5.6-3.1-9.3-8-9.3
		C126.2,44,123.1,47.7,123.1,53.4"/>
	<path clip-path="url(#SVGID_6_)" fill="#283583" d="M152.8,53.3c0,2.9-0.8,5.7-3.6,5.7c-2.6,0-3.7-2.9-3.7-5.7c0-2.9,1-5.6,3.7-5.6
		C151.9,47.7,152.8,50.4,152.8,53.3 M152.8,62.2h4V37.8h-4.2v8.9h-0.1h0c-1-1.7-2.8-2.6-4.6-2.6c-4.5,0-6.8,4.4-6.8,9.2
		c0,4.9,2.3,9.5,6.9,9.5c2,0,3.7-0.8,4.7-2.7h0.1V62.2z"/>
	<path clip-path="url(#SVGID_6_)" fill="#283583" d="M163.6,51.4c0.1-1.4,0.8-3.8,3.5-3.8c2.1,0,3,1.3,3.4,3.8H163.6z M174.7,54.5
		c0.3-5.4-2.2-10.5-7.5-10.5c-4.7,0-7.9,4-7.9,9.3c0,5.5,3,9.3,7.9,9.3c3.5,0,6-1.8,7.2-6h-3.7c-0.3,1.1-1.6,2.3-3.3,2.3
		c-2.4,0-3.7-1.4-3.8-4.5H174.7z"/>
	<path clip-path="url(#SVGID_6_)" fill="#283583" d="M177.2,62.2h4.2v-9.3c0-3.6,1-5.1,3.3-5.1c2,0,2.7,1.4,2.7,4.3v10h4.2V51.3
		c0-4.4-1.1-7.3-5.6-7.3c-1.8,0-3.6,1-4.7,2.9h-0.1v-2.5h-4V62.2z"/>
	<path clip-path="url(#SVGID_6_)" fill="#283583" d="M198.4,51.4c0.1-1.4,0.8-3.8,3.5-3.8c2.1,0,3,1.3,3.4,3.8H198.4z M209.6,54.5
		c0.3-5.4-2.2-10.5-7.5-10.5c-4.7,0-7.9,4-7.9,9.3c0,5.5,3,9.3,7.9,9.3c3.5,0,6-1.8,7.2-6h-3.7c-0.3,1.1-1.6,2.3-3.3,2.3
		c-2.4,0-3.7-1.4-3.8-4.5H209.6z"/>
	<path clip-path="url(#SVGID_6_)" fill="#283583" d="M211.3,56.4c0.2,4.7,3.7,6.2,7.3,6.2c3.5,0,7.1-1.5,7.1-6.2
		c0-3.3-2.4-4.3-4.9-5c-2.4-0.6-4.8-0.9-4.8-2.6c0-1.4,1.4-1.6,2.4-1.6c1.5,0,2.8,0.5,2.9,2.4h4c-0.3-4.3-3.4-5.6-6.8-5.6
		c-3.3,0-6.7,1.2-6.7,5.7c0,3.1,2.5,4.1,4.9,4.7c3,0.8,4.8,1.3,4.8,2.7c0,1.7-1.6,2.3-2.8,2.3c-1.7,0-3.2-0.9-3.3-3H211.3z"/>
	<path clip-path="url(#SVGID_6_)" fill="#283583" d="M231.6,51.4c0.1-1.4,0.8-3.8,3.5-3.8c2.1,0,3,1.3,3.4,3.8H231.6z M242.8,54.5
		c0.3-5.4-2.2-10.5-7.5-10.5c-4.7,0-7.9,4-7.9,9.3c0,5.5,3,9.3,7.9,9.3c3.5,0,6-1.8,7.2-6h-3.7c-0.3,1.1-1.6,2.3-3.3,2.3
		c-2.4,0-3.7-1.4-3.8-4.5H242.8z"/>
</g>
</svg>
